<mxfile host="Electron" agent="Mozilla/5.0 (Macintosh; Intel Mac OS X 10_15_7) AppleWebKit/537.36 (KHTML, like Gecko) draw.io/25.0.2 Chrome/128.0.6613.186 Electron/32.2.5 Safari/537.36" version="25.0.2" pages="4">
  <diagram name="로그인" id="bbSmZqSCpcp9kZqDv1Xg">
    <mxGraphModel dx="1061" dy="928" grid="1" gridSize="10" guides="1" tooltips="1" connect="1" arrows="1" fold="1" page="1" pageScale="1" pageWidth="827" pageHeight="1169" math="0" shadow="0">
      <root>
        <mxCell id="0" />
        <mxCell id="1" parent="0" />
        <mxCell id="-haKyJY0QjG_2UKn7cYb-2" value="AuthController" style="rounded=1;whiteSpace=wrap;html=1;dashed=1;" parent="1" vertex="1">
          <mxGeometry x="340" y="370" width="90" height="110" as="geometry" />
        </mxCell>
        <mxCell id="-haKyJY0QjG_2UKn7cYb-4" value="" style="group" parent="1" vertex="1" connectable="0">
          <mxGeometry x="60" y="371" width="60" height="108" as="geometry" />
        </mxCell>
        <mxCell id="-haKyJY0QjG_2UKn7cYb-3" value="" style="rounded=1;whiteSpace=wrap;html=1;" parent="-haKyJY0QjG_2UKn7cYb-4" vertex="1">
          <mxGeometry width="60" height="108" as="geometry" />
        </mxCell>
        <mxCell id="-haKyJY0QjG_2UKn7cYb-1" value="user" style="shape=umlActor;verticalLabelPosition=bottom;verticalAlign=top;html=1;outlineConnect=0;" parent="-haKyJY0QjG_2UKn7cYb-4" vertex="1">
          <mxGeometry x="15" y="21.6" width="30" height="64.80000000000001" as="geometry" />
        </mxCell>
        <mxCell id="-haKyJY0QjG_2UKn7cYb-5" value="[request] POST /auth/login" style="rounded=0;orthogonalLoop=1;jettySize=auto;html=1;exitX=1;exitY=0.25;exitDx=0;exitDy=0;entryX=0;entryY=0.25;entryDx=0;entryDy=0;" parent="1" source="-haKyJY0QjG_2UKn7cYb-3" target="-haKyJY0QjG_2UKn7cYb-2" edge="1">
          <mxGeometry x="-0.0181" y="18" relative="1" as="geometry">
            <mxPoint x="290" y="398" as="targetPoint" />
            <mxPoint as="offset" />
          </mxGeometry>
        </mxCell>
        <mxCell id="-haKyJY0QjG_2UKn7cYb-8" value="" style="rounded=1;whiteSpace=wrap;html=1;dashed=1;" parent="1" vertex="1">
          <mxGeometry x="500.5" y="370" width="629.5" height="110" as="geometry" />
        </mxCell>
        <mxCell id="-haKyJY0QjG_2UKn7cYb-9" value="JwtUtil" style="rounded=1;whiteSpace=wrap;html=1;" parent="1" vertex="1">
          <mxGeometry x="741.5" y="280" width="120" height="60" as="geometry" />
        </mxCell>
        <mxCell id="-haKyJY0QjG_2UKn7cYb-13" value="use" style="edgeStyle=orthogonalEdgeStyle;rounded=0;orthogonalLoop=1;jettySize=auto;html=1;exitX=0.5;exitY=0;exitDx=0;exitDy=0;entryX=0.5;entryY=1;entryDx=0;entryDy=0;dashed=1;" parent="1" source="-haKyJY0QjG_2UKn7cYb-10" target="-haKyJY0QjG_2UKn7cYb-12" edge="1">
          <mxGeometry relative="1" as="geometry" />
        </mxCell>
        <mxCell id="-haKyJY0QjG_2UKn7cYb-17" value="Y" style="edgeStyle=orthogonalEdgeStyle;rounded=0;orthogonalLoop=1;jettySize=auto;html=1;exitX=1;exitY=0.5;exitDx=0;exitDy=0;entryX=0;entryY=0.5;entryDx=0;entryDy=0;" parent="1" source="GzvHbLlpPh6AY7awZp8s-13" target="-haKyJY0QjG_2UKn7cYb-15" edge="1">
          <mxGeometry x="-0.6863" y="-12" relative="1" as="geometry">
            <mxPoint as="offset" />
          </mxGeometry>
        </mxCell>
        <mxCell id="-haKyJY0QjG_2UKn7cYb-10" value="로그인 정보 확인" style="rounded=0;whiteSpace=wrap;html=1;" parent="1" vertex="1">
          <mxGeometry x="520.5" y="378" width="100" height="40" as="geometry" />
        </mxCell>
        <mxCell id="-haKyJY0QjG_2UKn7cYb-11" value="DB" style="shape=cylinder3;whiteSpace=wrap;html=1;boundedLbl=1;backgroundOutline=1;size=15;" parent="1" vertex="1">
          <mxGeometry x="540.5" y="150" width="60" height="80" as="geometry" />
        </mxCell>
        <mxCell id="-haKyJY0QjG_2UKn7cYb-14" value="use" style="rounded=0;orthogonalLoop=1;jettySize=auto;html=1;exitX=0.5;exitY=0;exitDx=0;exitDy=0;dashed=1;" parent="1" source="-haKyJY0QjG_2UKn7cYb-12" target="-haKyJY0QjG_2UKn7cYb-11" edge="1">
          <mxGeometry relative="1" as="geometry" />
        </mxCell>
        <mxCell id="-haKyJY0QjG_2UKn7cYb-12" value="UserRepository" style="rounded=1;whiteSpace=wrap;html=1;" parent="1" vertex="1">
          <mxGeometry x="510.5" y="280" width="120" height="60" as="geometry" />
        </mxCell>
        <mxCell id="-haKyJY0QjG_2UKn7cYb-16" value="use" style="rounded=0;orthogonalLoop=1;jettySize=auto;html=1;exitX=0.5;exitY=0;exitDx=0;exitDy=0;dashed=1;" parent="1" source="-haKyJY0QjG_2UKn7cYb-15" target="-haKyJY0QjG_2UKn7cYb-9" edge="1">
          <mxGeometry relative="1" as="geometry" />
        </mxCell>
        <mxCell id="-haKyJY0QjG_2UKn7cYb-15" value="JWT 생성" style="rounded=0;whiteSpace=wrap;html=1;" parent="1" vertex="1">
          <mxGeometry x="751.5" y="378" width="100" height="40" as="geometry" />
        </mxCell>
        <mxCell id="-haKyJY0QjG_2UKn7cYb-18" style="edgeStyle=orthogonalEdgeStyle;rounded=0;orthogonalLoop=1;jettySize=auto;html=1;exitX=1;exitY=0.5;exitDx=0;exitDy=0;entryX=1;entryY=0.75;entryDx=0;entryDy=0;" parent="1" source="-haKyJY0QjG_2UKn7cYb-15" target="-haKyJY0QjG_2UKn7cYb-2" edge="1">
          <mxGeometry relative="1" as="geometry">
            <mxPoint x="510" y="450" as="targetPoint" />
            <Array as="points">
              <mxPoint x="1110" y="398" />
              <mxPoint x="1110" y="453" />
            </Array>
          </mxGeometry>
        </mxCell>
        <mxCell id="-haKyJY0QjG_2UKn7cYb-19" value="return JWT" style="edgeLabel;html=1;align=center;verticalAlign=middle;resizable=0;points=[];" parent="-haKyJY0QjG_2UKn7cYb-18" vertex="1" connectable="0">
          <mxGeometry x="0.8075" y="-3" relative="1" as="geometry">
            <mxPoint x="29" y="1" as="offset" />
          </mxGeometry>
        </mxCell>
        <mxCell id="-haKyJY0QjG_2UKn7cYb-7" style="edgeStyle=orthogonalEdgeStyle;rounded=0;orthogonalLoop=1;jettySize=auto;html=1;exitX=1;exitY=0.25;exitDx=0;exitDy=0;entryX=0;entryY=0.5;entryDx=0;entryDy=0;" parent="1" source="-haKyJY0QjG_2UKn7cYb-2" target="-haKyJY0QjG_2UKn7cYb-10" edge="1">
          <mxGeometry relative="1" as="geometry">
            <mxPoint x="550" y="420" as="targetPoint" />
          </mxGeometry>
        </mxCell>
        <mxCell id="-haKyJY0QjG_2UKn7cYb-20" value="[response] JWT" style="rounded=0;orthogonalLoop=1;jettySize=auto;html=1;exitX=0;exitY=0.75;exitDx=0;exitDy=0;entryX=1;entryY=0.75;entryDx=0;entryDy=0;" parent="1" source="-haKyJY0QjG_2UKn7cYb-2" target="-haKyJY0QjG_2UKn7cYb-3" edge="1">
          <mxGeometry x="-0.1774" y="8" relative="1" as="geometry">
            <mxPoint x="314.02" y="649.9999999999999" as="sourcePoint" />
            <mxPoint x="119.99999999999999" y="686.9" as="targetPoint" />
            <mxPoint as="offset" />
          </mxGeometry>
        </mxCell>
        <mxCell id="-haKyJY0QjG_2UKn7cYb-21" value="AuthService" style="text;html=1;align=center;verticalAlign=middle;whiteSpace=wrap;rounded=0;fillColor=default;" parent="1" vertex="1">
          <mxGeometry x="771.5" y="463" width="60" height="30" as="geometry" />
        </mxCell>
        <mxCell id="-haKyJY0QjG_2UKn7cYb-22" value="&lt;h1 style=&quot;margin-top: 0px;&quot;&gt;로그인 과정&lt;/h1&gt;&lt;p&gt;사용자가 계정의 아이디, 패스워드를 인증 서버에 전달하여 인증 토큰(JWT)를 받는 과정&lt;/p&gt;" style="text;html=1;whiteSpace=wrap;overflow=hidden;rounded=0;" parent="1" vertex="1">
          <mxGeometry x="60" y="240" width="440" height="120" as="geometry" />
        </mxCell>
        <mxCell id="GzvHbLlpPh6AY7awZp8s-3" value="AccessToken(JWT) 와&amp;nbsp;&lt;div&gt;RefreshToken 값 저장&lt;/div&gt;" style="rounded=0;whiteSpace=wrap;html=1;" vertex="1" parent="1">
          <mxGeometry x="871.5" y="378" width="210" height="40" as="geometry" />
        </mxCell>
        <mxCell id="GzvHbLlpPh6AY7awZp8s-4" value="RefreshTokenRepository" style="rounded=1;whiteSpace=wrap;html=1;" vertex="1" parent="1">
          <mxGeometry x="871.5" y="280" width="210" height="60" as="geometry" />
        </mxCell>
        <mxCell id="GzvHbLlpPh6AY7awZp8s-5" value="use" style="rounded=0;orthogonalLoop=1;jettySize=auto;html=1;dashed=1;entryX=0.5;entryY=1;entryDx=0;entryDy=0;" edge="1" parent="1" source="GzvHbLlpPh6AY7awZp8s-3" target="GzvHbLlpPh6AY7awZp8s-4">
          <mxGeometry relative="1" as="geometry">
            <mxPoint x="710.5" y="388" as="sourcePoint" />
            <mxPoint x="710.5" y="350" as="targetPoint" />
          </mxGeometry>
        </mxCell>
        <mxCell id="GzvHbLlpPh6AY7awZp8s-6" value="use" style="edgeStyle=orthogonalEdgeStyle;rounded=0;orthogonalLoop=1;jettySize=auto;html=1;exitX=0.5;exitY=0;exitDx=0;exitDy=0;entryX=1;entryY=0.5;entryDx=0;entryDy=0;entryPerimeter=0;dashed=1;" edge="1" parent="1" source="GzvHbLlpPh6AY7awZp8s-4" target="-haKyJY0QjG_2UKn7cYb-11">
          <mxGeometry x="-0.8356" relative="1" as="geometry">
            <mxPoint as="offset" />
          </mxGeometry>
        </mxCell>
        <mxCell id="GzvHbLlpPh6AY7awZp8s-16" value="" style="edgeStyle=orthogonalEdgeStyle;rounded=0;orthogonalLoop=1;jettySize=auto;html=1;exitX=1;exitY=0.5;exitDx=0;exitDy=0;entryX=0;entryY=0.5;entryDx=0;entryDy=0;" edge="1" parent="1" source="-haKyJY0QjG_2UKn7cYb-10" target="GzvHbLlpPh6AY7awZp8s-13">
          <mxGeometry relative="1" as="geometry">
            <mxPoint x="621" y="398" as="sourcePoint" />
            <mxPoint x="752" y="398" as="targetPoint" />
          </mxGeometry>
        </mxCell>
        <mxCell id="GzvHbLlpPh6AY7awZp8s-13" value="검증됨" style="rhombus;whiteSpace=wrap;html=1;" vertex="1" parent="1">
          <mxGeometry x="646" y="372" width="80" height="52" as="geometry" />
        </mxCell>
        <mxCell id="GzvHbLlpPh6AY7awZp8s-30" value="accessToken" style="rounded=1;whiteSpace=wrap;html=1;fillColor=#dae8fc;strokeColor=#6c8ebf;" vertex="1" parent="1">
          <mxGeometry x="140" y="475" width="90" height="20" as="geometry" />
        </mxCell>
        <mxCell id="GzvHbLlpPh6AY7awZp8s-31" value="refreshToken" style="rounded=1;whiteSpace=wrap;html=1;fillColor=#d5e8d4;strokeColor=#82b366;" vertex="1" parent="1">
          <mxGeometry x="240" y="475" width="90" height="20" as="geometry" />
        </mxCell>
      </root>
    </mxGraphModel>
  </diagram>
  <diagram name="인증" id="Rou-_Yk3GvduVFPiEhsJ">
    <mxGraphModel dx="1114" dy="974" grid="1" gridSize="10" guides="1" tooltips="1" connect="1" arrows="1" fold="1" page="1" pageScale="1" pageWidth="827" pageHeight="1169" math="0" shadow="0">
      <root>
        <mxCell id="AforwtAccnTKHhVCcMNn-0" />
        <mxCell id="AforwtAccnTKHhVCcMNn-1" parent="AforwtAccnTKHhVCcMNn-0" />
        <mxCell id="c-c1qXzFS7tX9s2nBUAy-5" value="" style="rounded=1;whiteSpace=wrap;html=1;dashed=1;" vertex="1" parent="AforwtAccnTKHhVCcMNn-1">
          <mxGeometry x="385.75" y="420" width="629.5" height="110" as="geometry" />
        </mxCell>
        <mxCell id="c-c1qXzFS7tX9s2nBUAy-1" value="" style="group" vertex="1" connectable="0" parent="AforwtAccnTKHhVCcMNn-1">
          <mxGeometry x="60" y="426" width="60" height="108" as="geometry" />
        </mxCell>
        <mxCell id="c-c1qXzFS7tX9s2nBUAy-2" value="" style="rounded=1;whiteSpace=wrap;html=1;" vertex="1" parent="c-c1qXzFS7tX9s2nBUAy-1">
          <mxGeometry width="60" height="108" as="geometry" />
        </mxCell>
        <mxCell id="c-c1qXzFS7tX9s2nBUAy-3" value="user" style="shape=umlActor;verticalLabelPosition=bottom;verticalAlign=top;html=1;outlineConnect=0;" vertex="1" parent="c-c1qXzFS7tX9s2nBUAy-1">
          <mxGeometry x="15" y="21.6" width="30" height="64.80000000000001" as="geometry" />
        </mxCell>
        <mxCell id="c-c1qXzFS7tX9s2nBUAy-4" value="[request] GET /data" style="rounded=0;orthogonalLoop=1;jettySize=auto;html=1;exitX=1;exitY=0.25;exitDx=0;exitDy=0;entryX=0;entryY=0.5;entryDx=0;entryDy=0;" edge="1" parent="AforwtAccnTKHhVCcMNn-1" source="c-c1qXzFS7tX9s2nBUAy-2" target="c-c1qXzFS7tX9s2nBUAy-37">
          <mxGeometry x="-0.0181" y="18" relative="1" as="geometry">
            <mxPoint x="340" y="453" as="targetPoint" />
            <mxPoint as="offset" />
          </mxGeometry>
        </mxCell>
        <mxCell id="c-c1qXzFS7tX9s2nBUAy-18" value="[response] OK" style="rounded=0;orthogonalLoop=1;jettySize=auto;html=1;exitX=1;exitY=0.5;exitDx=0;exitDy=0;entryX=1;entryY=0.75;entryDx=0;entryDy=0;edgeStyle=orthogonalEdgeStyle;" edge="1" parent="AforwtAccnTKHhVCcMNn-1" source="6-9lA8INky5VJ5bC7GqN-0" target="c-c1qXzFS7tX9s2nBUAy-2">
          <mxGeometry x="0.7246" y="13" relative="1" as="geometry">
            <mxPoint x="340" y="507.5" as="sourcePoint" />
            <mxPoint x="119.99999999999999" y="741.9" as="targetPoint" />
            <mxPoint as="offset" />
            <Array as="points">
              <mxPoint x="1130" y="453" />
              <mxPoint x="1130" y="507" />
            </Array>
          </mxGeometry>
        </mxCell>
        <mxCell id="c-c1qXzFS7tX9s2nBUAy-19" value="JwtAuthenticationFilter" style="text;html=1;align=center;verticalAlign=middle;whiteSpace=wrap;rounded=0;fillColor=default;" vertex="1" parent="AforwtAccnTKHhVCcMNn-1">
          <mxGeometry x="670.5" y="513" width="60" height="30" as="geometry" />
        </mxCell>
        <mxCell id="c-c1qXzFS7tX9s2nBUAy-20" value="&lt;h1 style=&quot;margin-top: 0px;&quot;&gt;인증&lt;/h1&gt;&lt;p&gt;사용자가 발급받은 access token을 통해 데이터 요청 시 인증 과정&lt;/p&gt;" style="text;html=1;whiteSpace=wrap;overflow=hidden;rounded=0;" vertex="1" parent="AforwtAccnTKHhVCcMNn-1">
          <mxGeometry x="60" y="240" width="440" height="120" as="geometry" />
        </mxCell>
        <mxCell id="c-c1qXzFS7tX9s2nBUAy-28" value="DATA" style="rounded=1;whiteSpace=wrap;html=1;fillColor=#e1d5e7;strokeColor=#9673a6;" vertex="1" parent="AforwtAccnTKHhVCcMNn-1">
          <mxGeometry x="200" y="530" width="90" height="20" as="geometry" />
        </mxCell>
        <mxCell id="c-c1qXzFS7tX9s2nBUAy-35" value="Header" style="swimlane;whiteSpace=wrap;html=1;" vertex="1" parent="AforwtAccnTKHhVCcMNn-1">
          <mxGeometry x="190" y="360" width="125" height="60" as="geometry" />
        </mxCell>
        <mxCell id="c-c1qXzFS7tX9s2nBUAy-27" value="accessToken" style="rounded=1;whiteSpace=wrap;html=1;fillColor=#dae8fc;strokeColor=#6c8ebf;" vertex="1" parent="c-c1qXzFS7tX9s2nBUAy-35">
          <mxGeometry x="17.5" y="30" width="90" height="20" as="geometry" />
        </mxCell>
        <mxCell id="c-c1qXzFS7tX9s2nBUAy-40" value="Y" style="edgeStyle=orthogonalEdgeStyle;rounded=0;orthogonalLoop=1;jettySize=auto;html=1;exitX=1;exitY=0.5;exitDx=0;exitDy=0;entryX=0;entryY=0.5;entryDx=0;entryDy=0;" edge="1" parent="AforwtAccnTKHhVCcMNn-1" source="c-c1qXzFS7tX9s2nBUAy-37" target="c-c1qXzFS7tX9s2nBUAy-38">
          <mxGeometry x="-0.3651" y="-16" relative="1" as="geometry">
            <mxPoint as="offset" />
          </mxGeometry>
        </mxCell>
        <mxCell id="c-c1qXzFS7tX9s2nBUAy-37" value="accessToken&lt;div&gt;존재 확인&lt;/div&gt;" style="rhombus;whiteSpace=wrap;html=1;" vertex="1" parent="AforwtAccnTKHhVCcMNn-1">
          <mxGeometry x="410" y="427" width="130" height="52" as="geometry" />
        </mxCell>
        <mxCell id="6-9lA8INky5VJ5bC7GqN-1" value="Y" style="edgeStyle=orthogonalEdgeStyle;rounded=0;orthogonalLoop=1;jettySize=auto;html=1;exitX=1;exitY=0.5;exitDx=0;exitDy=0;entryX=0;entryY=0.5;entryDx=0;entryDy=0;" edge="1" parent="AforwtAccnTKHhVCcMNn-1" source="c-c1qXzFS7tX9s2nBUAy-38" target="hjFODEqRGuNJlm8TQ9W1-0">
          <mxGeometry x="-0.4333" y="-16" relative="1" as="geometry">
            <mxPoint as="offset" />
          </mxGeometry>
        </mxCell>
        <mxCell id="M9slbikfg6yLdOelqb9h-3" value="use" style="edgeStyle=orthogonalEdgeStyle;rounded=0;orthogonalLoop=1;jettySize=auto;html=1;exitX=0.5;exitY=0;exitDx=0;exitDy=0;dashed=1;" edge="1" parent="AforwtAccnTKHhVCcMNn-1" source="c-c1qXzFS7tX9s2nBUAy-38" target="M9slbikfg6yLdOelqb9h-2">
          <mxGeometry relative="1" as="geometry" />
        </mxCell>
        <mxCell id="nE0f3YsFApMCf-avnd2v-1" value="use" style="edgeStyle=orthogonalEdgeStyle;rounded=0;orthogonalLoop=1;jettySize=auto;html=1;exitX=0.5;exitY=0;exitDx=0;exitDy=0;entryX=0.5;entryY=1;entryDx=0;entryDy=0;dashed=1;" edge="1" parent="AforwtAccnTKHhVCcMNn-1" source="c-c1qXzFS7tX9s2nBUAy-38" target="nE0f3YsFApMCf-avnd2v-0">
          <mxGeometry relative="1" as="geometry" />
        </mxCell>
        <mxCell id="c-c1qXzFS7tX9s2nBUAy-38" value="accessToken&lt;div&gt;만료 확인&lt;/div&gt;" style="rhombus;whiteSpace=wrap;html=1;" vertex="1" parent="AforwtAccnTKHhVCcMNn-1">
          <mxGeometry x="571.5" y="427" width="130" height="52" as="geometry" />
        </mxCell>
        <mxCell id="6-9lA8INky5VJ5bC7GqN-2" style="edgeStyle=orthogonalEdgeStyle;rounded=0;orthogonalLoop=1;jettySize=auto;html=1;exitX=1;exitY=0.5;exitDx=0;exitDy=0;entryX=0;entryY=0.5;entryDx=0;entryDy=0;" edge="1" parent="AforwtAccnTKHhVCcMNn-1" source="hjFODEqRGuNJlm8TQ9W1-0" target="6-9lA8INky5VJ5bC7GqN-0">
          <mxGeometry relative="1" as="geometry" />
        </mxCell>
        <mxCell id="ByekT8_hvSs1L6z_hBSj-1" value="use" style="edgeStyle=orthogonalEdgeStyle;rounded=0;orthogonalLoop=1;jettySize=auto;html=1;exitX=0.5;exitY=0;exitDx=0;exitDy=0;entryX=0.5;entryY=1;entryDx=0;entryDy=0;dashed=1;" edge="1" parent="AforwtAccnTKHhVCcMNn-1" source="hjFODEqRGuNJlm8TQ9W1-0" target="ByekT8_hvSs1L6z_hBSj-0">
          <mxGeometry relative="1" as="geometry" />
        </mxCell>
        <mxCell id="hjFODEqRGuNJlm8TQ9W1-0" value="사용자 정보 확인" style="rounded=0;whiteSpace=wrap;html=1;" vertex="1" parent="AforwtAccnTKHhVCcMNn-1">
          <mxGeometry x="731.5" y="433" width="100" height="40" as="geometry" />
        </mxCell>
        <mxCell id="6-9lA8INky5VJ5bC7GqN-0" value="인증객체 생성" style="rounded=0;whiteSpace=wrap;html=1;" vertex="1" parent="AforwtAccnTKHhVCcMNn-1">
          <mxGeometry x="870" y="433" width="100" height="40" as="geometry" />
        </mxCell>
        <mxCell id="M9slbikfg6yLdOelqb9h-0" value="DB" style="shape=cylinder3;whiteSpace=wrap;html=1;boundedLbl=1;backgroundOutline=1;size=15;" vertex="1" parent="AforwtAccnTKHhVCcMNn-1">
          <mxGeometry x="606.5" y="200" width="60" height="80" as="geometry" />
        </mxCell>
        <mxCell id="M9slbikfg6yLdOelqb9h-1" value="use" style="rounded=0;orthogonalLoop=1;jettySize=auto;html=1;exitX=0.5;exitY=0;exitDx=0;exitDy=0;dashed=1;edgeStyle=elbowEdgeStyle;entryX=0;entryY=0.5;entryDx=0;entryDy=0;entryPerimeter=0;" edge="1" parent="AforwtAccnTKHhVCcMNn-1" source="M9slbikfg6yLdOelqb9h-2" target="M9slbikfg6yLdOelqb9h-0">
          <mxGeometry x="-0.6904" relative="1" as="geometry">
            <Array as="points">
              <mxPoint x="525" y="290" />
            </Array>
            <mxPoint as="offset" />
          </mxGeometry>
        </mxCell>
        <mxCell id="M9slbikfg6yLdOelqb9h-2" value="AccessTokenBlacklistRepository" style="rounded=1;whiteSpace=wrap;html=1;" vertex="1" parent="AforwtAccnTKHhVCcMNn-1">
          <mxGeometry x="420.5" y="320" width="210" height="60" as="geometry" />
        </mxCell>
        <mxCell id="nE0f3YsFApMCf-avnd2v-0" value="JwtUtil" style="rounded=1;whiteSpace=wrap;html=1;" vertex="1" parent="AforwtAccnTKHhVCcMNn-1">
          <mxGeometry x="640.5" y="320" width="120" height="60" as="geometry" />
        </mxCell>
        <mxCell id="ByekT8_hvSs1L6z_hBSj-0" value="UserRepository" style="rounded=1;whiteSpace=wrap;html=1;" vertex="1" parent="AforwtAccnTKHhVCcMNn-1">
          <mxGeometry x="770" y="320" width="120" height="60" as="geometry" />
        </mxCell>
        <mxCell id="ByekT8_hvSs1L6z_hBSj-2" value="use" style="edgeStyle=orthogonalEdgeStyle;rounded=0;orthogonalLoop=1;jettySize=auto;html=1;exitX=0.5;exitY=0;exitDx=0;exitDy=0;entryX=1;entryY=0.5;entryDx=0;entryDy=0;entryPerimeter=0;dashed=1;" edge="1" parent="AforwtAccnTKHhVCcMNn-1" source="ByekT8_hvSs1L6z_hBSj-0" target="M9slbikfg6yLdOelqb9h-0">
          <mxGeometry relative="1" as="geometry" />
        </mxCell>
        <mxCell id="c-c1qXzFS7tX9s2nBUAy-29" value="AuthController" style="rounded=1;whiteSpace=wrap;html=1;dashed=1;" vertex="1" parent="AforwtAccnTKHhVCcMNn-1">
          <mxGeometry x="1060" y="420" width="90" height="110" as="geometry" />
        </mxCell>
      </root>
    </mxGraphModel>
  </diagram>
  <diagram name="인증 토큰 재발급" id="H16p8PKdKyjIaDmIryr3">
    <mxGraphModel dx="928" dy="812" grid="1" gridSize="10" guides="1" tooltips="1" connect="1" arrows="1" fold="1" page="1" pageScale="1" pageWidth="827" pageHeight="1169" math="0" shadow="0">
      <root>
        <mxCell id="X_uJZNBYWi8WiipcYHuE-0" />
        <mxCell id="X_uJZNBYWi8WiipcYHuE-1" parent="X_uJZNBYWi8WiipcYHuE-0" />
        <mxCell id="X_uJZNBYWi8WiipcYHuE-33" value="AuthController" style="rounded=1;whiteSpace=wrap;html=1;dashed=1;" vertex="1" parent="X_uJZNBYWi8WiipcYHuE-1">
          <mxGeometry x="340" y="320" width="90" height="110" as="geometry" />
        </mxCell>
        <mxCell id="X_uJZNBYWi8WiipcYHuE-34" value="" style="group" vertex="1" connectable="0" parent="X_uJZNBYWi8WiipcYHuE-1">
          <mxGeometry x="60" y="321" width="60" height="108" as="geometry" />
        </mxCell>
        <mxCell id="X_uJZNBYWi8WiipcYHuE-35" value="" style="rounded=1;whiteSpace=wrap;html=1;" vertex="1" parent="X_uJZNBYWi8WiipcYHuE-34">
          <mxGeometry width="60" height="108" as="geometry" />
        </mxCell>
        <mxCell id="X_uJZNBYWi8WiipcYHuE-36" value="user" style="shape=umlActor;verticalLabelPosition=bottom;verticalAlign=top;html=1;outlineConnect=0;" vertex="1" parent="X_uJZNBYWi8WiipcYHuE-34">
          <mxGeometry x="15" y="21.6" width="30" height="64.80000000000001" as="geometry" />
        </mxCell>
        <mxCell id="X_uJZNBYWi8WiipcYHuE-37" value="[request] POST /auth/reflash" style="rounded=0;orthogonalLoop=1;jettySize=auto;html=1;exitX=1;exitY=0.25;exitDx=0;exitDy=0;entryX=0;entryY=0.25;entryDx=0;entryDy=0;" edge="1" parent="X_uJZNBYWi8WiipcYHuE-1" source="X_uJZNBYWi8WiipcYHuE-35" target="X_uJZNBYWi8WiipcYHuE-33">
          <mxGeometry x="-0.0181" y="18" relative="1" as="geometry">
            <mxPoint x="290" y="348" as="targetPoint" />
            <mxPoint as="offset" />
          </mxGeometry>
        </mxCell>
        <mxCell id="X_uJZNBYWi8WiipcYHuE-38" value="" style="rounded=1;whiteSpace=wrap;html=1;dashed=1;" vertex="1" parent="X_uJZNBYWi8WiipcYHuE-1">
          <mxGeometry x="503" y="320" width="670" height="110" as="geometry" />
        </mxCell>
        <mxCell id="X_uJZNBYWi8WiipcYHuE-39" value="DB" style="shape=cylinder3;whiteSpace=wrap;html=1;boundedLbl=1;backgroundOutline=1;size=15;" vertex="1" parent="X_uJZNBYWi8WiipcYHuE-1">
          <mxGeometry x="596" y="110" width="60" height="80" as="geometry" />
        </mxCell>
        <mxCell id="X_uJZNBYWi8WiipcYHuE-40" value="use" style="rounded=0;orthogonalLoop=1;jettySize=auto;html=1;exitX=0.5;exitY=0;exitDx=0;exitDy=0;dashed=1;" edge="1" parent="X_uJZNBYWi8WiipcYHuE-1" source="X_uJZNBYWi8WiipcYHuE-54" target="X_uJZNBYWi8WiipcYHuE-39">
          <mxGeometry relative="1" as="geometry">
            <mxPoint x="573" y="230" as="sourcePoint" />
          </mxGeometry>
        </mxCell>
        <mxCell id="X_uJZNBYWi8WiipcYHuE-41" style="rounded=0;orthogonalLoop=1;jettySize=auto;html=1;exitX=1;exitY=0.25;exitDx=0;exitDy=0;entryX=0;entryY=0.5;entryDx=0;entryDy=0;edgeStyle=orthogonalEdgeStyle;" edge="1" parent="X_uJZNBYWi8WiipcYHuE-1" source="X_uJZNBYWi8WiipcYHuE-33" target="X_uJZNBYWi8WiipcYHuE-53">
          <mxGeometry relative="1" as="geometry">
            <mxPoint x="570" y="348" as="targetPoint" />
          </mxGeometry>
        </mxCell>
        <mxCell id="X_uJZNBYWi8WiipcYHuE-42" value="[response] JWT" style="rounded=0;orthogonalLoop=1;jettySize=auto;html=1;exitX=0;exitY=0.75;exitDx=0;exitDy=0;entryX=1;entryY=0.75;entryDx=0;entryDy=0;" edge="1" parent="X_uJZNBYWi8WiipcYHuE-1" source="X_uJZNBYWi8WiipcYHuE-33" target="X_uJZNBYWi8WiipcYHuE-35">
          <mxGeometry x="-0.1774" y="8" relative="1" as="geometry">
            <mxPoint x="314.02" y="600" as="sourcePoint" />
            <mxPoint x="120" y="636.9000000000001" as="targetPoint" />
            <mxPoint as="offset" />
          </mxGeometry>
        </mxCell>
        <mxCell id="X_uJZNBYWi8WiipcYHuE-43" value="AuthService" style="text;html=1;align=center;verticalAlign=middle;whiteSpace=wrap;rounded=0;fillColor=default;" vertex="1" parent="X_uJZNBYWi8WiipcYHuE-1">
          <mxGeometry x="774.5" y="413" width="60" height="30" as="geometry" />
        </mxCell>
        <mxCell id="X_uJZNBYWi8WiipcYHuE-44" value="&lt;h1 style=&quot;margin-top: 0px;&quot;&gt;&lt;span style=&quot;background-color: transparent; color: light-dark(rgb(0, 0, 0), rgb(255, 255, 255));&quot;&gt;인증 토큰 재발급&lt;/span&gt;&lt;/h1&gt;&lt;h1 style=&quot;margin-top: 0px;&quot;&gt;&lt;span style=&quot;font-size: 12px; font-weight: 400;&quot;&gt;사용자가 refresh 토큰을 통해 인증 토큰을 재발급 받는 과정&amp;nbsp;&lt;/span&gt;&lt;/h1&gt;" style="text;html=1;whiteSpace=wrap;overflow=hidden;rounded=0;" vertex="1" parent="X_uJZNBYWi8WiipcYHuE-1">
          <mxGeometry x="60" y="145" width="440" height="120" as="geometry" />
        </mxCell>
        <mxCell id="X_uJZNBYWi8WiipcYHuE-51" value="use" style="edgeStyle=orthogonalEdgeStyle;rounded=0;orthogonalLoop=1;jettySize=auto;html=1;exitX=0.5;exitY=0;exitDx=0;exitDy=0;entryX=0.5;entryY=1;entryDx=0;entryDy=0;dashed=1;" edge="1" parent="X_uJZNBYWi8WiipcYHuE-1" source="X_uJZNBYWi8WiipcYHuE-53" target="X_uJZNBYWi8WiipcYHuE-54">
          <mxGeometry relative="1" as="geometry" />
        </mxCell>
        <mxCell id="X_uJZNBYWi8WiipcYHuE-52" value="Y" style="edgeStyle=orthogonalEdgeStyle;rounded=0;orthogonalLoop=1;jettySize=auto;html=1;exitX=1;exitY=0.5;exitDx=0;exitDy=0;entryX=0;entryY=0.5;entryDx=0;entryDy=0;" edge="1" parent="X_uJZNBYWi8WiipcYHuE-1" source="X_uJZNBYWi8WiipcYHuE-62" target="X_uJZNBYWi8WiipcYHuE-58">
          <mxGeometry x="-0.7551" y="-13" relative="1" as="geometry">
            <mxPoint as="offset" />
          </mxGeometry>
        </mxCell>
        <mxCell id="X_uJZNBYWi8WiipcYHuE-53" value="AccessToken(JWT) 와&amp;nbsp;&lt;div&gt;RefreshToken 값 검증&lt;/div&gt;" style="rounded=0;whiteSpace=wrap;html=1;" vertex="1" parent="X_uJZNBYWi8WiipcYHuE-1">
          <mxGeometry x="516" y="327" width="210" height="40" as="geometry" />
        </mxCell>
        <mxCell id="X_uJZNBYWi8WiipcYHuE-54" value="RefreshTokenRepository" style="rounded=1;whiteSpace=wrap;html=1;" vertex="1" parent="X_uJZNBYWi8WiipcYHuE-1">
          <mxGeometry x="516" y="230" width="210" height="60" as="geometry" />
        </mxCell>
        <mxCell id="X_uJZNBYWi8WiipcYHuE-55" style="edgeStyle=orthogonalEdgeStyle;rounded=0;orthogonalLoop=1;jettySize=auto;html=1;exitX=1;exitY=0.5;exitDx=0;exitDy=0;" edge="1" parent="X_uJZNBYWi8WiipcYHuE-1" source="X_uJZNBYWi8WiipcYHuE-58" target="X_uJZNBYWi8WiipcYHuE-66">
          <mxGeometry relative="1" as="geometry" />
        </mxCell>
        <mxCell id="X_uJZNBYWi8WiipcYHuE-56" style="edgeStyle=orthogonalEdgeStyle;rounded=0;orthogonalLoop=1;jettySize=auto;html=1;exitX=0.5;exitY=0;exitDx=0;exitDy=0;entryX=1;entryY=0.5;entryDx=0;entryDy=0;dashed=1;" edge="1" parent="X_uJZNBYWi8WiipcYHuE-1" source="X_uJZNBYWi8WiipcYHuE-58" target="X_uJZNBYWi8WiipcYHuE-54">
          <mxGeometry relative="1" as="geometry" />
        </mxCell>
        <mxCell id="X_uJZNBYWi8WiipcYHuE-57" value="use" style="edgeLabel;html=1;align=center;verticalAlign=middle;resizable=0;points=[];" vertex="1" connectable="0" parent="X_uJZNBYWi8WiipcYHuE-56">
          <mxGeometry x="-0.8288" relative="1" as="geometry">
            <mxPoint as="offset" />
          </mxGeometry>
        </mxCell>
        <mxCell id="X_uJZNBYWi8WiipcYHuE-58" value="기존 refreshToken&lt;div&gt;만료&lt;/div&gt;" style="rounded=0;whiteSpace=wrap;html=1;" vertex="1" parent="X_uJZNBYWi8WiipcYHuE-1">
          <mxGeometry x="854.5" y="327" width="108.5" height="40" as="geometry" />
        </mxCell>
        <mxCell id="X_uJZNBYWi8WiipcYHuE-61" value="" style="edgeStyle=orthogonalEdgeStyle;rounded=0;orthogonalLoop=1;jettySize=auto;html=1;exitX=1;exitY=0.5;exitDx=0;exitDy=0;entryX=0;entryY=0.5;entryDx=0;entryDy=0;" edge="1" parent="X_uJZNBYWi8WiipcYHuE-1" source="X_uJZNBYWi8WiipcYHuE-53" target="X_uJZNBYWi8WiipcYHuE-62">
          <mxGeometry relative="1" as="geometry">
            <mxPoint x="726" y="347" as="sourcePoint" />
            <mxPoint x="830" y="347" as="targetPoint" />
          </mxGeometry>
        </mxCell>
        <mxCell id="X_uJZNBYWi8WiipcYHuE-62" value="검증됨" style="rhombus;whiteSpace=wrap;html=1;" vertex="1" parent="X_uJZNBYWi8WiipcYHuE-1">
          <mxGeometry x="750" y="321" width="80" height="52" as="geometry" />
        </mxCell>
        <mxCell id="X_uJZNBYWi8WiipcYHuE-63" value="JwtUtil" style="rounded=1;whiteSpace=wrap;html=1;" vertex="1" parent="X_uJZNBYWi8WiipcYHuE-1">
          <mxGeometry x="983" y="229" width="120" height="60" as="geometry" />
        </mxCell>
        <mxCell id="X_uJZNBYWi8WiipcYHuE-64" value="use" style="rounded=0;orthogonalLoop=1;jettySize=auto;html=1;exitX=0.5;exitY=0;exitDx=0;exitDy=0;dashed=1;" edge="1" parent="X_uJZNBYWi8WiipcYHuE-1" source="X_uJZNBYWi8WiipcYHuE-66" target="X_uJZNBYWi8WiipcYHuE-63">
          <mxGeometry relative="1" as="geometry" />
        </mxCell>
        <mxCell id="X_uJZNBYWi8WiipcYHuE-65" style="edgeStyle=orthogonalEdgeStyle;rounded=0;orthogonalLoop=1;jettySize=auto;html=1;exitX=0.5;exitY=1;exitDx=0;exitDy=0;entryX=1;entryY=0.75;entryDx=0;entryDy=0;" edge="1" parent="X_uJZNBYWi8WiipcYHuE-1" source="X_uJZNBYWi8WiipcYHuE-66" target="X_uJZNBYWi8WiipcYHuE-33">
          <mxGeometry relative="1" as="geometry" />
        </mxCell>
        <mxCell id="X_uJZNBYWi8WiipcYHuE-66" value="JWT 생성" style="rounded=0;whiteSpace=wrap;html=1;" vertex="1" parent="X_uJZNBYWi8WiipcYHuE-1">
          <mxGeometry x="993" y="327" width="100" height="40" as="geometry" />
        </mxCell>
        <mxCell id="X_uJZNBYWi8WiipcYHuE-67" value="use" style="edgeStyle=orthogonalEdgeStyle;rounded=0;orthogonalLoop=1;jettySize=auto;html=1;exitX=1;exitY=0.5;exitDx=0;exitDy=0;entryX=0.75;entryY=0;entryDx=0;entryDy=0;dashed=1;" edge="1" parent="X_uJZNBYWi8WiipcYHuE-1" source="X_uJZNBYWi8WiipcYHuE-68" target="X_uJZNBYWi8WiipcYHuE-54">
          <mxGeometry x="-0.8805" relative="1" as="geometry">
            <mxPoint as="offset" />
          </mxGeometry>
        </mxCell>
        <mxCell id="X_uJZNBYWi8WiipcYHuE-68" value="AccessToken(JWT) 와&amp;nbsp;&lt;div&gt;RefreshToken 값 저장&lt;/div&gt;" style="rounded=0;whiteSpace=wrap;html=1;" vertex="1" parent="X_uJZNBYWi8WiipcYHuE-1">
          <mxGeometry x="883" y="380" width="210" height="40" as="geometry" />
        </mxCell>
        <mxCell id="X_uJZNBYWi8WiipcYHuE-71" value="new accessToken" style="rounded=1;whiteSpace=wrap;html=1;fillColor=#dae8fc;strokeColor=#6c8ebf;" vertex="1" parent="X_uJZNBYWi8WiipcYHuE-1">
          <mxGeometry x="143" y="424" width="90" height="26" as="geometry" />
        </mxCell>
        <mxCell id="X_uJZNBYWi8WiipcYHuE-72" value="new refreshToken" style="rounded=1;whiteSpace=wrap;html=1;fillColor=#d5e8d4;strokeColor=#82b366;" vertex="1" parent="X_uJZNBYWi8WiipcYHuE-1">
          <mxGeometry x="243" y="424" width="90" height="26" as="geometry" />
        </mxCell>
        <mxCell id="E99cHNVyf6Tiz7QK0XSW-0" value="Header" style="swimlane;whiteSpace=wrap;html=1;" vertex="1" parent="X_uJZNBYWi8WiipcYHuE-1">
          <mxGeometry x="108" y="250" width="125" height="60" as="geometry" />
        </mxCell>
        <mxCell id="E99cHNVyf6Tiz7QK0XSW-1" value="accessToken" style="rounded=1;whiteSpace=wrap;html=1;fillColor=#dae8fc;strokeColor=#6c8ebf;" vertex="1" parent="E99cHNVyf6Tiz7QK0XSW-0">
          <mxGeometry x="17.5" y="30" width="90" height="20" as="geometry" />
        </mxCell>
        <mxCell id="7hFR0gKnR45h58JQskDU-0" value="Body" style="swimlane;whiteSpace=wrap;html=1;" vertex="1" parent="X_uJZNBYWi8WiipcYHuE-1">
          <mxGeometry x="243" y="250" width="125" height="60" as="geometry" />
        </mxCell>
        <mxCell id="X_uJZNBYWi8WiipcYHuE-46" value="refreshToken" style="rounded=1;whiteSpace=wrap;html=1;fillColor=#d5e8d4;strokeColor=#82b366;" vertex="1" parent="7hFR0gKnR45h58JQskDU-0">
          <mxGeometry x="17.5" y="30" width="90" height="20" as="geometry" />
        </mxCell>
      </root>
    </mxGraphModel>
  </diagram>
  <diagram name="토큰 만료" id="tz7Jrio6P_ajnOz09sRI">
    <mxGraphModel dx="1393" dy="1218" grid="1" gridSize="10" guides="1" tooltips="1" connect="1" arrows="1" fold="1" page="1" pageScale="1" pageWidth="827" pageHeight="1169" math="0" shadow="0">
      <root>
        <mxCell id="mxuRw_tlZnsyzzbQRRCw-0" />
        <mxCell id="mxuRw_tlZnsyzzbQRRCw-1" parent="mxuRw_tlZnsyzzbQRRCw-0" />
        <mxCell id="mxuRw_tlZnsyzzbQRRCw-2" value="" style="rounded=1;whiteSpace=wrap;html=1;dashed=1;" vertex="1" parent="mxuRw_tlZnsyzzbQRRCw-1">
          <mxGeometry x="490" y="270" width="420" height="110" as="geometry" />
        </mxCell>
        <mxCell id="mxuRw_tlZnsyzzbQRRCw-3" value="use" style="edgeStyle=orthogonalEdgeStyle;rounded=0;orthogonalLoop=1;jettySize=auto;html=1;exitX=0.5;exitY=0;exitDx=0;exitDy=0;entryX=0.5;entryY=1;entryDx=0;entryDy=0;dashed=1;" edge="1" parent="mxuRw_tlZnsyzzbQRRCw-1" source="mxuRw_tlZnsyzzbQRRCw-4" target="mxuRw_tlZnsyzzbQRRCw-7">
          <mxGeometry relative="1" as="geometry" />
        </mxCell>
        <mxCell id="mxuRw_tlZnsyzzbQRRCw-4" value="accessToken을&lt;div&gt;BlackList에 추가&lt;/div&gt;" style="rounded=0;whiteSpace=wrap;html=1;" vertex="1" parent="mxuRw_tlZnsyzzbQRRCw-1">
          <mxGeometry x="510" y="278" width="100" height="40" as="geometry" />
        </mxCell>
        <mxCell id="mxuRw_tlZnsyzzbQRRCw-5" value="DB" style="shape=cylinder3;whiteSpace=wrap;html=1;boundedLbl=1;backgroundOutline=1;size=15;" vertex="1" parent="mxuRw_tlZnsyzzbQRRCw-1">
          <mxGeometry x="530" y="50" width="60" height="80" as="geometry" />
        </mxCell>
        <mxCell id="mxuRw_tlZnsyzzbQRRCw-6" value="use" style="rounded=0;orthogonalLoop=1;jettySize=auto;html=1;exitX=0.5;exitY=0;exitDx=0;exitDy=0;dashed=1;" edge="1" parent="mxuRw_tlZnsyzzbQRRCw-1" source="mxuRw_tlZnsyzzbQRRCw-7" target="mxuRw_tlZnsyzzbQRRCw-5">
          <mxGeometry relative="1" as="geometry" />
        </mxCell>
        <mxCell id="mxuRw_tlZnsyzzbQRRCw-7" value="AccessTokenBlacklistRepository" style="rounded=1;whiteSpace=wrap;html=1;" vertex="1" parent="mxuRw_tlZnsyzzbQRRCw-1">
          <mxGeometry x="455" y="180" width="210" height="60" as="geometry" />
        </mxCell>
        <mxCell id="mxuRw_tlZnsyzzbQRRCw-8" value="AuthService" style="text;html=1;align=center;verticalAlign=middle;whiteSpace=wrap;rounded=0;fillColor=default;" vertex="1" parent="mxuRw_tlZnsyzzbQRRCw-1">
          <mxGeometry x="670" y="363" width="60" height="30" as="geometry" />
        </mxCell>
        <mxCell id="mxuRw_tlZnsyzzbQRRCw-9" value="RefreshTokenRepository" style="rounded=1;whiteSpace=wrap;html=1;" vertex="1" parent="mxuRw_tlZnsyzzbQRRCw-1">
          <mxGeometry x="682" y="180" width="210" height="60" as="geometry" />
        </mxCell>
        <mxCell id="mxuRw_tlZnsyzzbQRRCw-10" value="use" style="edgeStyle=orthogonalEdgeStyle;rounded=0;orthogonalLoop=1;jettySize=auto;html=1;exitX=0.5;exitY=0;exitDx=0;exitDy=0;entryX=1;entryY=0.5;entryDx=0;entryDy=0;entryPerimeter=0;dashed=1;" edge="1" parent="mxuRw_tlZnsyzzbQRRCw-1" source="mxuRw_tlZnsyzzbQRRCw-9" target="mxuRw_tlZnsyzzbQRRCw-5">
          <mxGeometry x="-0.8356" relative="1" as="geometry">
            <mxPoint as="offset" />
          </mxGeometry>
        </mxCell>
        <mxCell id="mxuRw_tlZnsyzzbQRRCw-11" value="" style="edgeStyle=orthogonalEdgeStyle;rounded=0;orthogonalLoop=1;jettySize=auto;html=1;exitX=1;exitY=0.5;exitDx=0;exitDy=0;entryX=0;entryY=0.5;entryDx=0;entryDy=0;" edge="1" parent="mxuRw_tlZnsyzzbQRRCw-1" source="mxuRw_tlZnsyzzbQRRCw-4" target="mxuRw_tlZnsyzzbQRRCw-84">
          <mxGeometry relative="1" as="geometry">
            <mxPoint x="610.5" y="298" as="sourcePoint" />
            <mxPoint x="635.5" y="298.0000000000002" as="targetPoint" />
          </mxGeometry>
        </mxCell>
        <mxCell id="mxuRw_tlZnsyzzbQRRCw-73" value="AuthController" style="rounded=1;whiteSpace=wrap;html=1;dashed=1;" vertex="1" parent="mxuRw_tlZnsyzzbQRRCw-1">
          <mxGeometry x="330" y="270" width="90" height="110" as="geometry" />
        </mxCell>
        <mxCell id="mxuRw_tlZnsyzzbQRRCw-74" value="" style="group" vertex="1" connectable="0" parent="mxuRw_tlZnsyzzbQRRCw-1">
          <mxGeometry x="50" y="271" width="60" height="108" as="geometry" />
        </mxCell>
        <mxCell id="mxuRw_tlZnsyzzbQRRCw-75" value="" style="rounded=1;whiteSpace=wrap;html=1;" vertex="1" parent="mxuRw_tlZnsyzzbQRRCw-74">
          <mxGeometry width="60" height="108" as="geometry" />
        </mxCell>
        <mxCell id="mxuRw_tlZnsyzzbQRRCw-76" value="user" style="shape=umlActor;verticalLabelPosition=bottom;verticalAlign=top;html=1;outlineConnect=0;" vertex="1" parent="mxuRw_tlZnsyzzbQRRCw-74">
          <mxGeometry x="15" y="21.6" width="30" height="64.80000000000001" as="geometry" />
        </mxCell>
        <mxCell id="mxuRw_tlZnsyzzbQRRCw-77" value="[request] POST /auth/logout" style="rounded=0;orthogonalLoop=1;jettySize=auto;html=1;exitX=1;exitY=0.25;exitDx=0;exitDy=0;entryX=0;entryY=0.25;entryDx=0;entryDy=0;" edge="1" parent="mxuRw_tlZnsyzzbQRRCw-1" source="mxuRw_tlZnsyzzbQRRCw-75" target="mxuRw_tlZnsyzzbQRRCw-73">
          <mxGeometry x="-0.0181" y="18" relative="1" as="geometry">
            <mxPoint x="280" y="298" as="targetPoint" />
            <mxPoint as="offset" />
          </mxGeometry>
        </mxCell>
        <mxCell id="mxuRw_tlZnsyzzbQRRCw-78" style="rounded=0;orthogonalLoop=1;jettySize=auto;html=1;exitX=1;exitY=0.25;exitDx=0;exitDy=0;entryX=0;entryY=0.5;entryDx=0;entryDy=0;edgeStyle=orthogonalEdgeStyle;" edge="1" parent="mxuRw_tlZnsyzzbQRRCw-1" source="mxuRw_tlZnsyzzbQRRCw-73" target="mxuRw_tlZnsyzzbQRRCw-4">
          <mxGeometry relative="1" as="geometry">
            <mxPoint x="506" y="297" as="targetPoint" />
          </mxGeometry>
        </mxCell>
        <mxCell id="mxuRw_tlZnsyzzbQRRCw-79" value="[response] OK" style="rounded=0;orthogonalLoop=1;jettySize=auto;html=1;exitX=0;exitY=0.75;exitDx=0;exitDy=0;entryX=1;entryY=0.75;entryDx=0;entryDy=0;" edge="1" parent="mxuRw_tlZnsyzzbQRRCw-1" source="mxuRw_tlZnsyzzbQRRCw-73" target="mxuRw_tlZnsyzzbQRRCw-75">
          <mxGeometry x="-0.0002" y="8" relative="1" as="geometry">
            <mxPoint x="304.02" y="550" as="sourcePoint" />
            <mxPoint x="110" y="586.9000000000001" as="targetPoint" />
            <mxPoint as="offset" />
          </mxGeometry>
        </mxCell>
        <mxCell id="mxuRw_tlZnsyzzbQRRCw-80" value="&lt;h1 style=&quot;margin-top: 0px;&quot;&gt;토큰 만료&lt;/h1&gt;&lt;h1 style=&quot;margin-top: 0px;&quot;&gt;&lt;span style=&quot;font-size: 12px; font-weight: 400;&quot;&gt;사용자가 로그아웃을 통해&amp;nbsp; 토큰을 만료시키는 과정&amp;nbsp;&lt;/span&gt;&lt;/h1&gt;" style="text;html=1;whiteSpace=wrap;overflow=hidden;rounded=0;" vertex="1" parent="mxuRw_tlZnsyzzbQRRCw-1">
          <mxGeometry x="50" y="94" width="440" height="120" as="geometry" />
        </mxCell>
        <mxCell id="mxuRw_tlZnsyzzbQRRCw-82" value="use" style="edgeStyle=orthogonalEdgeStyle;rounded=0;orthogonalLoop=1;jettySize=auto;html=1;exitX=0.5;exitY=0;exitDx=0;exitDy=0;entryX=0.5;entryY=1;entryDx=0;entryDy=0;dashed=1;" edge="1" parent="mxuRw_tlZnsyzzbQRRCw-1" source="mxuRw_tlZnsyzzbQRRCw-84" target="mxuRw_tlZnsyzzbQRRCw-9">
          <mxGeometry relative="1" as="geometry" />
        </mxCell>
        <mxCell id="mxuRw_tlZnsyzzbQRRCw-83" style="edgeStyle=orthogonalEdgeStyle;rounded=0;orthogonalLoop=1;jettySize=auto;html=1;exitX=1;exitY=0.5;exitDx=0;exitDy=0;entryX=1;entryY=0.75;entryDx=0;entryDy=0;" edge="1" parent="mxuRw_tlZnsyzzbQRRCw-1" source="mxuRw_tlZnsyzzbQRRCw-84" target="mxuRw_tlZnsyzzbQRRCw-73">
          <mxGeometry relative="1" as="geometry" />
        </mxCell>
        <mxCell id="mxuRw_tlZnsyzzbQRRCw-84" value="refreshToken&amp;nbsp;&lt;span style=&quot;background-color: initial;&quot;&gt;만료&lt;/span&gt;" style="rounded=0;whiteSpace=wrap;html=1;" vertex="1" parent="mxuRw_tlZnsyzzbQRRCw-1">
          <mxGeometry x="732.75" y="278" width="108.5" height="40" as="geometry" />
        </mxCell>
        <mxCell id="F4TYNuaR-fX2sX5BDvv_-0" value="Header" style="swimlane;whiteSpace=wrap;html=1;" vertex="1" parent="mxuRw_tlZnsyzzbQRRCw-1">
          <mxGeometry x="160" y="204" width="125" height="60" as="geometry" />
        </mxCell>
        <mxCell id="F4TYNuaR-fX2sX5BDvv_-1" value="accessToken" style="rounded=1;whiteSpace=wrap;html=1;fillColor=#dae8fc;strokeColor=#6c8ebf;" vertex="1" parent="F4TYNuaR-fX2sX5BDvv_-0">
          <mxGeometry x="17.5" y="30" width="90" height="20" as="geometry" />
        </mxCell>
      </root>
    </mxGraphModel>
  </diagram>
</mxfile>
